<mxfile host="app.diagrams.net" modified="2023-07-11T10:00:58.592Z" agent="Mozilla/5.0 (Macintosh; Intel Mac OS X 10_15_7) AppleWebKit/537.36 (KHTML, like Gecko) Chrome/114.0.0.0 Safari/537.36" etag="EKTAy28M7KHzaWTyrcM2" version="21.3.2" type="device">
  <diagram name="Page-1" id="bxjPipJwao22qePQJjmP">
    <mxGraphModel dx="892" dy="1636" grid="1" gridSize="10" guides="1" tooltips="1" connect="1" arrows="1" fold="1" page="1" pageScale="1" pageWidth="850" pageHeight="1100" math="0" shadow="0">
      <root>
        <mxCell id="0" />
        <mxCell id="1" parent="0" />
        <mxCell id="_5Qlu_tdAdzTVT-NAqIc-6" value="" style="rounded=1;whiteSpace=wrap;html=1;" vertex="1" parent="1">
          <mxGeometry x="80" y="280" width="680" height="540" as="geometry" />
        </mxCell>
        <mxCell id="_5Qlu_tdAdzTVT-NAqIc-4" value="" style="rounded=1;whiteSpace=wrap;html=1;" vertex="1" parent="1">
          <mxGeometry x="240" y="-80" width="520" height="320" as="geometry" />
        </mxCell>
        <mxCell id="_5Qlu_tdAdzTVT-NAqIc-5" value="bootstrap" style="text;html=1;strokeColor=none;fillColor=none;align=center;verticalAlign=middle;whiteSpace=wrap;rounded=0;" vertex="1" parent="1">
          <mxGeometry x="515" y="-80" width="60" height="30" as="geometry" />
        </mxCell>
        <mxCell id="_5Qlu_tdAdzTVT-NAqIc-7" value="cluster-config" style="text;html=1;strokeColor=none;fillColor=none;align=center;verticalAlign=middle;whiteSpace=wrap;rounded=0;" vertex="1" parent="1">
          <mxGeometry x="380" y="280" width="80" height="30" as="geometry" />
        </mxCell>
        <mxCell id="_5Qlu_tdAdzTVT-NAqIc-8" value="" style="rounded=1;whiteSpace=wrap;html=1;" vertex="1" parent="1">
          <mxGeometry x="90" y="290" width="280" height="510" as="geometry" />
        </mxCell>
        <mxCell id="_5Qlu_tdAdzTVT-NAqIc-9" value="manifests" style="text;html=1;strokeColor=none;fillColor=none;align=center;verticalAlign=middle;whiteSpace=wrap;rounded=0;" vertex="1" parent="1">
          <mxGeometry x="200" y="290" width="60" height="30" as="geometry" />
        </mxCell>
        <mxCell id="_5Qlu_tdAdzTVT-NAqIc-36" value="" style="rounded=1;whiteSpace=wrap;html=1;" vertex="1" parent="1">
          <mxGeometry x="470" y="290" width="280" height="510" as="geometry" />
        </mxCell>
        <mxCell id="_5Qlu_tdAdzTVT-NAqIc-12" value="app-definitions" style="text;html=1;strokeColor=none;fillColor=none;align=center;verticalAlign=middle;whiteSpace=wrap;rounded=0;" vertex="1" parent="1">
          <mxGeometry x="568.75" y="290" width="82.5" height="30" as="geometry" />
        </mxCell>
        <mxCell id="_5Qlu_tdAdzTVT-NAqIc-38" value="" style="rounded=1;whiteSpace=wrap;html=1;" vertex="1" parent="1">
          <mxGeometry x="100" y="320" width="260" height="150" as="geometry" />
        </mxCell>
        <mxCell id="_5Qlu_tdAdzTVT-NAqIc-39" value="gitops" style="text;html=1;strokeColor=none;fillColor=none;align=center;verticalAlign=middle;whiteSpace=wrap;rounded=0;" vertex="1" parent="1">
          <mxGeometry x="200" y="320" width="60" height="30" as="geometry" />
        </mxCell>
        <mxCell id="_5Qlu_tdAdzTVT-NAqIc-48" value="Chart" style="shape=note;whiteSpace=wrap;html=1;backgroundOutline=1;darkOpacity=0.05;" vertex="1" parent="1">
          <mxGeometry x="500" y="500" width="80" height="100" as="geometry" />
        </mxCell>
        <mxCell id="_5Qlu_tdAdzTVT-NAqIc-49" value="" style="rounded=1;whiteSpace=wrap;html=1;" vertex="1" parent="1">
          <mxGeometry x="480" y="330" width="260" height="150" as="geometry" />
        </mxCell>
        <mxCell id="_5Qlu_tdAdzTVT-NAqIc-50" value="templates" style="text;html=1;strokeColor=none;fillColor=none;align=center;verticalAlign=middle;whiteSpace=wrap;rounded=0;" vertex="1" parent="1">
          <mxGeometry x="568.75" y="330" width="82.5" height="30" as="geometry" />
        </mxCell>
        <mxCell id="_5Qlu_tdAdzTVT-NAqIc-51" value="config-app-def" style="shape=note;whiteSpace=wrap;html=1;backgroundOutline=1;darkOpacity=0.05;" vertex="1" parent="1">
          <mxGeometry x="570" y="365" width="80" height="100" as="geometry" />
        </mxCell>
        <mxCell id="_5Qlu_tdAdzTVT-NAqIc-52" value="values" style="shape=note;whiteSpace=wrap;html=1;backgroundOutline=1;darkOpacity=0.05;" vertex="1" parent="1">
          <mxGeometry x="640" y="500" width="80" height="100" as="geometry" />
        </mxCell>
        <mxCell id="_5Qlu_tdAdzTVT-NAqIc-56" value="" style="rounded=1;whiteSpace=wrap;html=1;" vertex="1" parent="1">
          <mxGeometry x="250" y="-40" width="497.5" height="70" as="geometry" />
        </mxCell>
        <mxCell id="_5Qlu_tdAdzTVT-NAqIc-58" value="" style="rounded=1;whiteSpace=wrap;html=1;" vertex="1" parent="1">
          <mxGeometry x="250" y="50" width="497.5" height="170" as="geometry" />
        </mxCell>
        <mxCell id="_5Qlu_tdAdzTVT-NAqIc-59" value="acm" style="text;html=1;strokeColor=none;fillColor=none;align=center;verticalAlign=middle;whiteSpace=wrap;rounded=0;" vertex="1" parent="1">
          <mxGeometry x="250" y="-40" width="60" height="30" as="geometry" />
        </mxCell>
        <mxCell id="_5Qlu_tdAdzTVT-NAqIc-60" value="gitops" style="text;html=1;strokeColor=none;fillColor=none;align=center;verticalAlign=middle;whiteSpace=wrap;rounded=0;" vertex="1" parent="1">
          <mxGeometry x="250" y="50" width="77.5" height="30" as="geometry" />
        </mxCell>
        <mxCell id="_5Qlu_tdAdzTVT-NAqIc-15" value="kuson" style="shape=umlActor;verticalLabelPosition=bottom;verticalAlign=top;html=1;outlineConnect=0;" vertex="1" parent="1">
          <mxGeometry x="810" y="110" width="30" height="60" as="geometry" />
        </mxCell>
        <mxCell id="_5Qlu_tdAdzTVT-NAqIc-63" style="edgeStyle=orthogonalEdgeStyle;rounded=0;orthogonalLoop=1;jettySize=auto;html=1;fillColor=#ffe6cc;strokeColor=#d79b00;strokeWidth=3;" edge="1" parent="1" source="_5Qlu_tdAdzTVT-NAqIc-15" target="_5Qlu_tdAdzTVT-NAqIc-61">
          <mxGeometry relative="1" as="geometry" />
        </mxCell>
        <mxCell id="_5Qlu_tdAdzTVT-NAqIc-71" value="" style="rounded=1;whiteSpace=wrap;html=1;" vertex="1" parent="1">
          <mxGeometry x="80" y="-80" width="120" height="320" as="geometry" />
        </mxCell>
        <mxCell id="_5Qlu_tdAdzTVT-NAqIc-72" value="gitops-components" style="text;html=1;strokeColor=none;fillColor=none;align=center;verticalAlign=middle;whiteSpace=wrap;rounded=0;" vertex="1" parent="1">
          <mxGeometry x="80" y="-80" width="120" height="30" as="geometry" />
        </mxCell>
        <mxCell id="_5Qlu_tdAdzTVT-NAqIc-73" value="application-set" style="shape=note;whiteSpace=wrap;html=1;backgroundOutline=1;darkOpacity=0.05;size=12;" vertex="1" parent="1">
          <mxGeometry x="90" y="-40" width="100" height="40" as="geometry" />
        </mxCell>
        <mxCell id="_5Qlu_tdAdzTVT-NAqIc-74" value="projects" style="shape=note;whiteSpace=wrap;html=1;backgroundOutline=1;darkOpacity=0.05;size=12;" vertex="1" parent="1">
          <mxGeometry x="90" y="20" width="100" height="40" as="geometry" />
        </mxCell>
        <mxCell id="_5Qlu_tdAdzTVT-NAqIc-75" value="projects" style="shape=note;whiteSpace=wrap;html=1;backgroundOutline=1;darkOpacity=0.05;size=12;" vertex="1" parent="1">
          <mxGeometry x="90" y="80" width="100" height="40" as="geometry" />
        </mxCell>
        <mxCell id="_5Qlu_tdAdzTVT-NAqIc-83" value="" style="endArrow=none;html=1;rounded=0;exitX=1;exitY=1;exitDx=0;exitDy=0;fillColor=#f8cecc;strokeColor=#b85450;strokeWidth=4;entryX=0.574;entryY=0.002;entryDx=0;entryDy=0;entryPerimeter=0;" edge="1" parent="1" source="_5Qlu_tdAdzTVT-NAqIc-6" target="_5Qlu_tdAdzTVT-NAqIc-6">
          <mxGeometry width="50" height="50" relative="1" as="geometry">
            <mxPoint x="360" y="260" as="sourcePoint" />
            <mxPoint x="470" y="290" as="targetPoint" />
          </mxGeometry>
        </mxCell>
        <mxCell id="_5Qlu_tdAdzTVT-NAqIc-84" value="" style="endArrow=none;html=1;rounded=0;fillColor=#f8cecc;strokeColor=#b85450;strokeWidth=4;exitX=1;exitY=0;exitDx=0;exitDy=0;entryX=0.577;entryY=0.999;entryDx=0;entryDy=0;entryPerimeter=0;" edge="1" parent="1" source="_5Qlu_tdAdzTVT-NAqIc-6" target="_5Qlu_tdAdzTVT-NAqIc-6">
          <mxGeometry width="50" height="50" relative="1" as="geometry">
            <mxPoint x="770" y="465" as="sourcePoint" />
            <mxPoint x="470" y="640" as="targetPoint" />
          </mxGeometry>
        </mxCell>
        <mxCell id="_5Qlu_tdAdzTVT-NAqIc-85" value="" style="endArrow=none;html=1;rounded=0;fillColor=#f8cecc;strokeColor=#b85450;strokeWidth=4;exitX=1;exitY=0;exitDx=0;exitDy=0;" edge="1" parent="1" source="_5Qlu_tdAdzTVT-NAqIc-71">
          <mxGeometry width="50" height="50" relative="1" as="geometry">
            <mxPoint x="360" y="-110" as="sourcePoint" />
            <mxPoint x="80" y="240" as="targetPoint" />
          </mxGeometry>
        </mxCell>
        <mxCell id="_5Qlu_tdAdzTVT-NAqIc-86" value="" style="endArrow=none;html=1;rounded=0;fillColor=#f8cecc;strokeColor=#b85450;strokeWidth=4;exitX=1;exitY=1;exitDx=0;exitDy=0;entryX=0;entryY=0;entryDx=0;entryDy=0;" edge="1" parent="1" source="_5Qlu_tdAdzTVT-NAqIc-71" target="_5Qlu_tdAdzTVT-NAqIc-71">
          <mxGeometry width="50" height="50" relative="1" as="geometry">
            <mxPoint x="290" y="-70" as="sourcePoint" />
            <mxPoint x="90" y="250" as="targetPoint" />
          </mxGeometry>
        </mxCell>
        <mxCell id="_5Qlu_tdAdzTVT-NAqIc-21" value="1" style="ellipse;whiteSpace=wrap;html=1;aspect=fixed;" vertex="1" parent="1">
          <mxGeometry x="770" y="131" width="20" height="20" as="geometry" />
        </mxCell>
        <mxCell id="_5Qlu_tdAdzTVT-NAqIc-115" value="" style="rounded=1;whiteSpace=wrap;html=1;dashed=1;" vertex="1" parent="1">
          <mxGeometry x="327.5" y="70" width="170" height="130" as="geometry" />
        </mxCell>
        <mxCell id="_5Qlu_tdAdzTVT-NAqIc-68" value="gitops&lt;br&gt;subscription" style="shape=note;whiteSpace=wrap;html=1;backgroundOutline=1;darkOpacity=0.05;size=12;" vertex="1" parent="1">
          <mxGeometry x="410" y="90" width="80" height="40" as="geometry" />
        </mxCell>
        <mxCell id="_5Qlu_tdAdzTVT-NAqIc-87" value="application-set" style="shape=note;whiteSpace=wrap;html=1;backgroundOutline=1;darkOpacity=0.05;size=12;" vertex="1" parent="1">
          <mxGeometry x="390" y="140" width="100" height="40" as="geometry" />
        </mxCell>
        <mxCell id="_5Qlu_tdAdzTVT-NAqIc-88" value="projects" style="shape=note;whiteSpace=wrap;html=1;backgroundOutline=1;darkOpacity=0.05;size=12;" vertex="1" parent="1">
          <mxGeometry x="335" y="90" width="60" height="40" as="geometry" />
        </mxCell>
        <mxCell id="_5Qlu_tdAdzTVT-NAqIc-89" value="rbac" style="shape=note;whiteSpace=wrap;html=1;backgroundOutline=1;darkOpacity=0.05;size=12;" vertex="1" parent="1">
          <mxGeometry x="335" y="140" width="42.5" height="40" as="geometry" />
        </mxCell>
        <mxCell id="_5Qlu_tdAdzTVT-NAqIc-92" style="edgeStyle=orthogonalEdgeStyle;rounded=0;orthogonalLoop=1;jettySize=auto;html=1;fillColor=#ffe6cc;strokeColor=#d79b00;strokeWidth=3;" edge="1" parent="1" source="_5Qlu_tdAdzTVT-NAqIc-87" target="_5Qlu_tdAdzTVT-NAqIc-8">
          <mxGeometry relative="1" as="geometry">
            <Array as="points">
              <mxPoint x="440" y="260" />
              <mxPoint x="230" y="260" />
            </Array>
          </mxGeometry>
        </mxCell>
        <mxCell id="_5Qlu_tdAdzTVT-NAqIc-93" value="3" style="ellipse;whiteSpace=wrap;html=1;aspect=fixed;" vertex="1" parent="1">
          <mxGeometry x="371" y="250" width="20" height="20" as="geometry" />
        </mxCell>
        <mxCell id="_5Qlu_tdAdzTVT-NAqIc-131" value="" style="rounded=1;whiteSpace=wrap;html=1;" vertex="1" parent="1">
          <mxGeometry x="110" y="350" width="240.5" height="60" as="geometry" />
        </mxCell>
        <mxCell id="_5Qlu_tdAdzTVT-NAqIc-138" value="base" style="text;html=1;strokeColor=none;fillColor=none;align=center;verticalAlign=middle;whiteSpace=wrap;rounded=0;" vertex="1" parent="1">
          <mxGeometry x="200" y="350" width="55" height="20" as="geometry" />
        </mxCell>
        <mxCell id="_5Qlu_tdAdzTVT-NAqIc-95" value="kustomization" style="shape=note;whiteSpace=wrap;html=1;backgroundOutline=1;darkOpacity=0.05;size=12;" vertex="1" parent="1">
          <mxGeometry x="257.75" y="360" width="80" height="40" as="geometry" />
        </mxCell>
        <mxCell id="_5Qlu_tdAdzTVT-NAqIc-111" style="edgeStyle=orthogonalEdgeStyle;rounded=0;orthogonalLoop=1;jettySize=auto;html=1;entryX=0;entryY=0.5;entryDx=0;entryDy=0;fillColor=#ffe6cc;strokeColor=#d79b00;strokeWidth=3;" edge="1" parent="1" source="_5Qlu_tdAdzTVT-NAqIc-95" target="_5Qlu_tdAdzTVT-NAqIc-115">
          <mxGeometry relative="1" as="geometry">
            <mxPoint x="360" y="160" as="targetPoint" />
            <Array as="points">
              <mxPoint x="298" y="135" />
            </Array>
          </mxGeometry>
        </mxCell>
        <mxCell id="_5Qlu_tdAdzTVT-NAqIc-112" value="4.1" style="ellipse;whiteSpace=wrap;html=1;aspect=fixed;" vertex="1" parent="1">
          <mxGeometry x="287.5" y="325" width="20" height="20" as="geometry" />
        </mxCell>
        <mxCell id="_5Qlu_tdAdzTVT-NAqIc-159" value="" style="rounded=1;whiteSpace=wrap;html=1;" vertex="1" parent="1">
          <mxGeometry x="100" y="480" width="260" height="150" as="geometry" />
        </mxCell>
        <mxCell id="_5Qlu_tdAdzTVT-NAqIc-160" value="acm" style="text;html=1;strokeColor=none;fillColor=none;align=center;verticalAlign=middle;whiteSpace=wrap;rounded=0;" vertex="1" parent="1">
          <mxGeometry x="200" y="480" width="60" height="30" as="geometry" />
        </mxCell>
        <mxCell id="_5Qlu_tdAdzTVT-NAqIc-162" value="" style="rounded=1;whiteSpace=wrap;html=1;" vertex="1" parent="1">
          <mxGeometry x="110" y="510" width="240.5" height="60" as="geometry" />
        </mxCell>
        <mxCell id="_5Qlu_tdAdzTVT-NAqIc-167" value="base" style="text;html=1;strokeColor=none;fillColor=none;align=center;verticalAlign=middle;whiteSpace=wrap;rounded=0;" vertex="1" parent="1">
          <mxGeometry x="202.75" y="510" width="55" height="20" as="geometry" />
        </mxCell>
        <mxCell id="_5Qlu_tdAdzTVT-NAqIc-170" style="edgeStyle=orthogonalEdgeStyle;rounded=0;orthogonalLoop=1;jettySize=auto;html=1;entryX=0;entryY=0;entryDx=40;entryDy=21;entryPerimeter=0;fillColor=#ffe6cc;strokeColor=#d79b00;strokeWidth=3;" edge="1" parent="1" source="_5Qlu_tdAdzTVT-NAqIc-168" target="_5Qlu_tdAdzTVT-NAqIc-152">
          <mxGeometry relative="1" as="geometry">
            <Array as="points">
              <mxPoint x="220" y="541" />
              <mxPoint x="220" y="541" />
            </Array>
          </mxGeometry>
        </mxCell>
        <mxCell id="_5Qlu_tdAdzTVT-NAqIc-168" value="kustomization" style="shape=note;whiteSpace=wrap;html=1;backgroundOutline=1;darkOpacity=0.05;size=12;" vertex="1" parent="1">
          <mxGeometry x="257.75" y="520" width="80" height="40" as="geometry" />
        </mxCell>
        <mxCell id="_5Qlu_tdAdzTVT-NAqIc-152" value="..." style="shape=note;whiteSpace=wrap;html=1;backgroundOutline=1;darkOpacity=0.05;size=12;" vertex="1" parent="1">
          <mxGeometry x="135" y="520" width="40" height="30" as="geometry" />
        </mxCell>
        <mxCell id="_5Qlu_tdAdzTVT-NAqIc-153" value="..." style="shape=note;whiteSpace=wrap;html=1;backgroundOutline=1;darkOpacity=0.05;size=12;" vertex="1" parent="1">
          <mxGeometry x="125" y="530" width="40" height="30" as="geometry" />
        </mxCell>
        <mxCell id="_5Qlu_tdAdzTVT-NAqIc-171" value="4.2" style="ellipse;whiteSpace=wrap;html=1;aspect=fixed;" vertex="1" parent="1">
          <mxGeometry x="220.25" y="530" width="20" height="20" as="geometry" />
        </mxCell>
        <mxCell id="_5Qlu_tdAdzTVT-NAqIc-172" value="" style="rounded=1;whiteSpace=wrap;html=1;" vertex="1" parent="1">
          <mxGeometry x="100" y="640" width="260" height="150" as="geometry" />
        </mxCell>
        <mxCell id="_5Qlu_tdAdzTVT-NAqIc-173" value="ldap" style="text;html=1;strokeColor=none;fillColor=none;align=center;verticalAlign=middle;whiteSpace=wrap;rounded=0;" vertex="1" parent="1">
          <mxGeometry x="200" y="640" width="60" height="30" as="geometry" />
        </mxCell>
        <mxCell id="_5Qlu_tdAdzTVT-NAqIc-174" value="acm" style="rounded=1;whiteSpace=wrap;html=1;" vertex="1" parent="1">
          <mxGeometry x="110" y="760" width="40" height="20" as="geometry" />
        </mxCell>
        <mxCell id="_5Qlu_tdAdzTVT-NAqIc-175" value="" style="rounded=1;whiteSpace=wrap;html=1;" vertex="1" parent="1">
          <mxGeometry x="110" y="670" width="240.5" height="75" as="geometry" />
        </mxCell>
        <mxCell id="_5Qlu_tdAdzTVT-NAqIc-176" value="test" style="rounded=1;whiteSpace=wrap;html=1;" vertex="1" parent="1">
          <mxGeometry x="160" y="760" width="40" height="20" as="geometry" />
        </mxCell>
        <mxCell id="_5Qlu_tdAdzTVT-NAqIc-177" value="dev" style="rounded=1;whiteSpace=wrap;html=1;" vertex="1" parent="1">
          <mxGeometry x="210" y="760" width="40" height="20" as="geometry" />
        </mxCell>
        <mxCell id="_5Qlu_tdAdzTVT-NAqIc-178" value="qa" style="rounded=1;whiteSpace=wrap;html=1;" vertex="1" parent="1">
          <mxGeometry x="260.5" y="760" width="40" height="20" as="geometry" />
        </mxCell>
        <mxCell id="_5Qlu_tdAdzTVT-NAqIc-179" value="prod" style="rounded=1;whiteSpace=wrap;html=1;" vertex="1" parent="1">
          <mxGeometry x="310" y="760" width="40" height="20" as="geometry" />
        </mxCell>
        <mxCell id="_5Qlu_tdAdzTVT-NAqIc-180" value="base" style="text;html=1;strokeColor=none;fillColor=none;align=center;verticalAlign=middle;whiteSpace=wrap;rounded=0;" vertex="1" parent="1">
          <mxGeometry x="202.75" y="670" width="55" height="20" as="geometry" />
        </mxCell>
        <mxCell id="_5Qlu_tdAdzTVT-NAqIc-181" style="edgeStyle=orthogonalEdgeStyle;rounded=0;orthogonalLoop=1;jettySize=auto;html=1;entryX=0;entryY=0;entryDx=40;entryDy=21;entryPerimeter=0;fillColor=#ffe6cc;strokeColor=#d79b00;strokeWidth=3;" edge="1" parent="1" source="_5Qlu_tdAdzTVT-NAqIc-182" target="_5Qlu_tdAdzTVT-NAqIc-183">
          <mxGeometry relative="1" as="geometry">
            <Array as="points">
              <mxPoint x="220" y="716" />
              <mxPoint x="220" y="716" />
            </Array>
          </mxGeometry>
        </mxCell>
        <mxCell id="_5Qlu_tdAdzTVT-NAqIc-182" value="kustomization" style="shape=note;whiteSpace=wrap;html=1;backgroundOutline=1;darkOpacity=0.05;size=12;" vertex="1" parent="1">
          <mxGeometry x="260.5" y="695" width="80" height="40" as="geometry" />
        </mxCell>
        <mxCell id="_5Qlu_tdAdzTVT-NAqIc-183" value="..." style="shape=note;whiteSpace=wrap;html=1;backgroundOutline=1;darkOpacity=0.05;size=12;" vertex="1" parent="1">
          <mxGeometry x="135" y="695" width="40" height="30" as="geometry" />
        </mxCell>
        <mxCell id="_5Qlu_tdAdzTVT-NAqIc-184" value="..." style="shape=note;whiteSpace=wrap;html=1;backgroundOutline=1;darkOpacity=0.05;size=12;" vertex="1" parent="1">
          <mxGeometry x="125" y="705" width="40" height="30" as="geometry" />
        </mxCell>
        <mxCell id="_5Qlu_tdAdzTVT-NAqIc-185" value="4.3" style="ellipse;whiteSpace=wrap;html=1;aspect=fixed;" vertex="1" parent="1">
          <mxGeometry x="220.25" y="705" width="20" height="20" as="geometry" />
        </mxCell>
        <mxCell id="_5Qlu_tdAdzTVT-NAqIc-186" value="" style="endArrow=none;html=1;rounded=0;fillColor=#f8cecc;strokeColor=#b85450;strokeWidth=4;exitX=0;exitY=0;exitDx=0;exitDy=0;entryX=1;entryY=1;entryDx=0;entryDy=0;" edge="1" parent="1" source="_5Qlu_tdAdzTVT-NAqIc-9" target="_5Qlu_tdAdzTVT-NAqIc-9">
          <mxGeometry width="50" height="50" relative="1" as="geometry">
            <mxPoint x="191" y="290" as="sourcePoint" />
            <mxPoint x="250" y="305" as="targetPoint" />
          </mxGeometry>
        </mxCell>
        <mxCell id="_5Qlu_tdAdzTVT-NAqIc-187" value="" style="endArrow=none;html=1;rounded=0;fillColor=#f8cecc;strokeColor=#b85450;strokeWidth=4;exitX=0;exitY=1;exitDx=0;exitDy=0;entryX=1;entryY=0;entryDx=0;entryDy=0;" edge="1" parent="1" source="_5Qlu_tdAdzTVT-NAqIc-9" target="_5Qlu_tdAdzTVT-NAqIc-9">
          <mxGeometry width="50" height="50" relative="1" as="geometry">
            <mxPoint x="191" y="320" as="sourcePoint" />
            <mxPoint x="269" y="290" as="targetPoint" />
          </mxGeometry>
        </mxCell>
        <mxCell id="_5Qlu_tdAdzTVT-NAqIc-127" style="edgeStyle=orthogonalEdgeStyle;rounded=0;orthogonalLoop=1;jettySize=auto;html=1;fillColor=#ffe6cc;strokeColor=#d79b00;strokeWidth=3;entryX=1;entryY=0.5;entryDx=0;entryDy=0;" edge="1" parent="1" source="_5Qlu_tdAdzTVT-NAqIc-61" target="_5Qlu_tdAdzTVT-NAqIc-115">
          <mxGeometry relative="1" as="geometry">
            <Array as="points">
              <mxPoint x="690" y="135" />
            </Array>
          </mxGeometry>
        </mxCell>
        <mxCell id="_5Qlu_tdAdzTVT-NAqIc-61" value="kustomization" style="shape=note;whiteSpace=wrap;html=1;backgroundOutline=1;darkOpacity=0.05;size=12;" vertex="1" parent="1">
          <mxGeometry x="651.25" y="120" width="80" height="40" as="geometry" />
        </mxCell>
        <mxCell id="_5Qlu_tdAdzTVT-NAqIc-23" value="2" style="ellipse;whiteSpace=wrap;html=1;aspect=fixed;" vertex="1" parent="1">
          <mxGeometry x="568.75" y="123" width="20" height="20" as="geometry" />
        </mxCell>
        <mxCell id="YBXeqZevaprxdO5uhHi5-3" value="" style="rounded=1;whiteSpace=wrap;html=1;" vertex="1" parent="1">
          <mxGeometry x="110" y="420" width="240.5" height="45" as="geometry" />
        </mxCell>
        <mxCell id="_5Qlu_tdAdzTVT-NAqIc-130" value="acm" style="rounded=1;whiteSpace=wrap;html=1;" vertex="1" parent="1">
          <mxGeometry x="110" y="440" width="40" height="20" as="geometry" />
        </mxCell>
        <mxCell id="_5Qlu_tdAdzTVT-NAqIc-133" value="test" style="rounded=1;whiteSpace=wrap;html=1;" vertex="1" parent="1">
          <mxGeometry x="160" y="440" width="40" height="20" as="geometry" />
        </mxCell>
        <mxCell id="_5Qlu_tdAdzTVT-NAqIc-134" value="dev" style="rounded=1;whiteSpace=wrap;html=1;" vertex="1" parent="1">
          <mxGeometry x="210" y="440" width="40" height="20" as="geometry" />
        </mxCell>
        <mxCell id="_5Qlu_tdAdzTVT-NAqIc-136" value="qa" style="rounded=1;whiteSpace=wrap;html=1;" vertex="1" parent="1">
          <mxGeometry x="260.5" y="440" width="40" height="20" as="geometry" />
        </mxCell>
        <mxCell id="_5Qlu_tdAdzTVT-NAqIc-137" value="prod" style="rounded=1;whiteSpace=wrap;html=1;" vertex="1" parent="1">
          <mxGeometry x="310" y="440" width="40" height="20" as="geometry" />
        </mxCell>
        <mxCell id="YBXeqZevaprxdO5uhHi5-4" value="overlays" style="text;html=1;strokeColor=none;fillColor=none;align=center;verticalAlign=middle;whiteSpace=wrap;rounded=0;" vertex="1" parent="1">
          <mxGeometry x="202.5" y="420" width="55" height="20" as="geometry" />
        </mxCell>
        <mxCell id="YBXeqZevaprxdO5uhHi5-5" value="" style="rounded=1;whiteSpace=wrap;html=1;" vertex="1" parent="1">
          <mxGeometry x="110" y="580" width="240.5" height="45" as="geometry" />
        </mxCell>
        <mxCell id="YBXeqZevaprxdO5uhHi5-6" value="overlays" style="text;html=1;strokeColor=none;fillColor=none;align=center;verticalAlign=middle;whiteSpace=wrap;rounded=0;" vertex="1" parent="1">
          <mxGeometry x="202.5" y="580" width="55" height="20" as="geometry" />
        </mxCell>
        <mxCell id="_5Qlu_tdAdzTVT-NAqIc-161" value="acm" style="rounded=1;whiteSpace=wrap;html=1;" vertex="1" parent="1">
          <mxGeometry x="110" y="600" width="40" height="20" as="geometry" />
        </mxCell>
        <mxCell id="_5Qlu_tdAdzTVT-NAqIc-163" value="test" style="rounded=1;whiteSpace=wrap;html=1;" vertex="1" parent="1">
          <mxGeometry x="160" y="600" width="40" height="20" as="geometry" />
        </mxCell>
        <mxCell id="_5Qlu_tdAdzTVT-NAqIc-164" value="dev" style="rounded=1;whiteSpace=wrap;html=1;" vertex="1" parent="1">
          <mxGeometry x="210" y="600" width="40" height="20" as="geometry" />
        </mxCell>
        <mxCell id="_5Qlu_tdAdzTVT-NAqIc-165" value="qa" style="rounded=1;whiteSpace=wrap;html=1;" vertex="1" parent="1">
          <mxGeometry x="260.5" y="600" width="40" height="20" as="geometry" />
        </mxCell>
        <mxCell id="_5Qlu_tdAdzTVT-NAqIc-166" value="prod" style="rounded=1;whiteSpace=wrap;html=1;" vertex="1" parent="1">
          <mxGeometry x="310" y="600" width="40" height="20" as="geometry" />
        </mxCell>
      </root>
    </mxGraphModel>
  </diagram>
</mxfile>
